<?xml version="1.0" encoding="utf-8"?>
<!-- Generator: Adobe Illustrator 19.0.0, SVG Export Plug-In . SVG Version: 6.00 Build 0)  -->
<svg version="1.1" id="Layer_1" xmlns="http://www.w3.org/2000/svg" xmlns:xlink="http://www.w3.org/1999/xlink" x="0px" y="0px"
	 viewBox="0 0 553 387" style="enable-background:new 0 0 553 387;" xml:space="preserve">
<style type="text/css">
	.st0{fill:#D2645F;}
	.st1{fill:none;stroke:#0A2227;stroke-width:3.809;stroke-linecap:round;stroke-miterlimit:10;}
</style>
<g id="XMLID_930_">
	<path id="XMLID_939_" class="st0" d="M386.2,103.6c5.4,1.1,12.7-1.4,18.1-2c7.9-0.9,15.9-1.2,23.9-1.2c15.7,0.1,31.3,1.9,46.8,4.2
		c15.7,2.4,45.8,3.8,57.3,15.7c9.5,9.9,9.3,21.5-2.2,27.6c-31.4,16.7-136.5,5.3-136.5,5.3c-36.5,44.5-98.8,58.1-135.2,102.5
		c-6,7.3-11.3,16-12.9,25.5c-0.8,4.8-0.7,20.4,5.7,22.3c32.1,4.5,70.5,11.8,93.6,36.5c7.2,7.7,20.5,28.3,12.5,39.1
		c-4,5.4-9.2,0.6-13.2-1.8c-6-3.6-12.4-6.7-19-9.2c-15.7-5.7-32.5-8.1-49.2-8.8c-14-0.6-27.9,0-41.9,0.5
		c-12.5,0.4-28.3,3.4-40.1-1.6c-5.9-2.5-10.5-7.1-15.2-11.5c-14.6-13.6-30.8-25.4-46.6-37.5c-8.1-6.1-16.1-12.3-23.9-18.9
		c-7.4-6.2-13.9-13.9-21.9-19.2c-9.8-6.5-19.5-6.3-30.8-5.6c-14,0.9-28,3.4-41.5,7.3c-0.8-56.2-0.8-112.4-1.1-168.6
		c16.1-1.2,32.4,0.7,48.6,1.2c16.9,0.6,34,0.4,50.8-2.3c6.7-1.1,13.6-2.7,19.2-6.5c9.4-6.4,13.9-17.6,22.1-25.2
		c8.8-8.2,18.3-15.6,28.2-22.5C198,38,215.2,27.5,234.4,22.8c14.4-3.5,30.1-3.5,44.1,1.9c7.3,2.9,13.1,6.9,18.1,13
		c2.7,3.3,4.1,8.6,6.8,11.5c0.7,0.8,8.6,0.2,10.1,0.5c3.8,0.6,7.4,1.8,10.9,3.4c6.7,3,12.8,7.3,18.3,12.2
		c12.6,11.1,24.7,22.9,37.2,34.2C382.8,102,384.3,103.2,386.2,103.6z"/>
	<path id="XMLID_938_" class="st0" d="M312.1,48.3c0,0-82.9,19.7-106.7,52.5"/>
	<path id="XMLID_937_" class="st0" d="M397.5,104.4c0,0-62.4,21.4-88.7,51.6"/>
</g>
<g id="XMLID_915_">
	<path id="XMLID_928_" class="st1" d="M390.1,91.6c5.6,1.2,13.1-1.4,18.7-2c8.2-0.9,16.4-1.3,24.6-1.2c16.2,0.2,32.3,2,48.3,4.4
		c16.2,2.4,47.3,3.9,59.1,16.2c9.8,10.2,9.6,22.2-2.2,28.5c-32.4,17.2-140.7,5.5-140.7,5.5c-37.6,45.9-101.9,59.9-139.5,105.7
		c-6.2,7.6-11.7,16.5-13.3,26.3c-0.8,4.9-0.7,21,5.8,23c33.1,4.6,72.7,12.2,96.6,37.7c7.5,8,21.1,29.2,12.8,40.3
		c-4.1,5.5-9.5,0.6-13.6-1.9c-6.2-3.8-12.8-7-19.6-9.4c-16.2-5.9-33.5-8.3-50.7-9c-14.4-0.6-28.8,0-43.2,0.5
		c-12.9,0.5-29.2,3.5-41.3-1.7c-6.1-2.6-10.9-7.4-15.7-11.9c-15.1-14.1-31.7-26.2-48.1-38.6c-8.3-6.3-16.6-12.7-24.6-19.5
		c-7.6-6.4-14.3-14.3-22.6-19.8c-10.1-6.7-20.1-6.5-31.7-5.7c-14.5,0.9-28.8,3.5-42.8,7.6C5.4,208.4,5.4,150.5,5.2,92.5
		c16.6-1.2,33.4,0.7,50.1,1.2c17.5,0.6,35,0.4,52.3-2.4c6.9-1.1,14-2.7,19.8-6.7c9.7-6.6,14.3-18.1,22.8-26
		c9.1-8.4,18.9-16.1,29.1-23.2c16.8-11.6,34.5-22.4,54.3-27.3c14.8-3.6,31.1-3.6,45.4,2c7.5,2.9,13.5,7.1,18.7,13.4
		c2.8,3.4,4.2,8.9,7,11.8c0.7,0.8,8.8,0.2,10.4,0.5c3.9,0.7,7.7,1.9,11.3,3.5c6.9,3.1,13.2,7.6,18.9,12.6
		c13,11.5,25.5,23.6,38.4,35.2C386.6,89.9,388.2,91.2,390.1,91.6z"/>
	<path id="XMLID_927_" class="st1" d="M304.7,35.4c0,0-82.9,19.7-106.7,52.5"/>
	<path id="XMLID_926_" class="st1" d="M357.1,62.7c0,0-70.7,18.2-106.9,46.7"/>
	<path id="XMLID_924_" class="st1" d="M390.1,91.6c0,0-62.4,21.4-88.7,51.6"/>
</g>
</svg>
